<svg height="16" viewBox="1 1 14 14" width="16" xmlns="http://www.w3.org/2000/svg" xmlns:xlink="http://www.w3.org/1999/xlink"><defs><linearGradient id="a" x1="25%" x2="74.92%" y1=".825%" y2="107.86%"><stop offset="0" stop-color="#ffd951"/><stop offset="1" stop-color="#ffb222"/></linearGradient><linearGradient id="b" x1="50%" x2="50%" y1="0%" y2="99.795%"><stop offset="0" stop-color="#e58f0d"/><stop offset="1" stop-color="#eb7915"/></linearGradient><filter id="d" height="111.7%" width="111.4%" x="-5.7%" y="-5.9%"><feOffset dx=".56" dy=".84" in="SourceAlpha" result="shadowOffsetInner1"/><feComposite in="shadowOffsetInner1" in2="SourceAlpha" k2="-1" k3="1" operator="arithmetic" result="shadowInnerInner1"/><feColorMatrix in="shadowInnerInner1" values="0 0 0 0 1 0 0 0 0 1 0 0 0 0 1 0 0 0 0.65667938 0"/></filter><path id="c" d="m5.93 5.39 1.48-2.97c.17-.34.58-.48.92-.31.13.07.24.18.31.31l1.4 2.87c.11.23.34.39.59.42l2.93.36c.4.04.68.41.63.81-.01.16-.09.32-.21.44l-2.31 2.29c-.1.1-.14.23-.13.36l.39 3.1c.05.45-.26.85-.7.9a.806.806 0 0 1-.48-.08L8.3 12.54c-.17-.1-.39-.1-.56-.01L5.2 13.84c-.36.19-.79.04-.98-.32-.07-.14-.09-.29-.07-.44l.2-1.42c.1-.7.53-1.3 1.15-1.62l2.82-1.45c.07-.04.1-.13.06-.2-.03-.06-.09-.1-.16-.09l-3.44.5c-.53.08-1.06-.08-1.47-.41l-1.15-.94a.777.777 0 0 1 .39-1.37l2.94-.38a.57.57 0 0 0 .44-.31z"/></defs><g fill="none" fill-rule="evenodd"><use fill="url('#a')" xlink:href="#c"/><use fill="#000" filter="url('#d')" xlink:href="#c"/><use stroke="url('#b')" stroke-width=".56" xlink:href="#c"/></g></svg>