<svg xmlns="http://www.w3.org/2000/svg" fill="none" viewBox="0 0 20 20"><path fill="#3390EC" d="m9.64 13.828-3 1.844a.649.649 0 0 1-.5.078.622.622 0 0 1-.406-.297.513.513 0 0 1-.093-.242.712.712 0 0 1 .015-.258l.469-1.828a2.31 2.31 0 0 1 .445-.898c.214-.266.477-.472.79-.617l3.265-1.563a.352.352 0 0 0 .156-.18.284.284 0 0 0-.016-.242.316.316 0 0 0-.132-.14.25.25 0 0 0-.196-.016l-3.64.625a2.612 2.612 0 0 1-2.078-.563l-1.141-.968a.611.611 0 0 1-.242-.446.627.627 0 0 1 .148-.476.73.73 0 0 1 .211-.172.508.508 0 0 1 .242-.063l3.532-.28A.673.673 0 0 0 7.797 7a.579.579 0 0 0 .219-.281l1.359-3.281a.644.644 0 0 1 .36-.352.704.704 0 0 1 .515-.008.962.962 0 0 1 .36.36l1.343 3.281A.706.706 0 0 0 12.18 7c.098.073.21.115.335.125l3.547.281c.177.01.326.086.446.227.12.14.174.3.164.477a.71.71 0 0 1-.078.257.646.646 0 0 1-.157.196l-2.703 2.297a.656.656 0 0 0-.195.304.797.797 0 0 0-.024.367l.844 3.438a.63.63 0 0 1-.086.5.65.65 0 0 1-.414.297.61.61 0 0 1-.258.008.743.743 0 0 1-.242-.086l-3.015-1.86a.74.74 0 0 0-.36-.093.656.656 0 0 0-.343.093Z"/></svg>