<svg xmlns="http://www.w3.org/2000/svg" fill="none" viewBox="0 0 25 25"><path fill="url('#a')" fill-rule="evenodd" stroke="url('#b')" stroke-width="1.143" d="m12.748 19.573-4.63 2.835a1.022 1.022 0 0 1-1.524-1.123l.717-2.82a3.547 3.547 0 0 1 1.902-2.325l5.05-2.424a.473.473 0 0 0-.285-.893l-5.622.973a3.941 3.941 0 0 1-3.203-.862l-1.776-1.489a1.022 1.022 0 0 1 .577-1.802l5.426-.425c.383-.03.717-.272.864-.627l2.094-5.054a1.022 1.022 0 0 1 1.888 0l2.094 5.054c.147.355.48.597.864.627l5.456.427a1.022 1.022 0 0 1 .584 1.797l-4.162 3.548c-.292.25-.42.643-.33 1.017l1.28 5.314a1.022 1.022 0 0 1-1.529 1.11l-4.667-2.858a1.021 1.021 0 0 0-1.068 0Z" clip-rule="evenodd"/><path stroke="url('#c')" stroke-width="2.286" d="m12.748 19.573-4.63 2.835a1.022 1.022 0 0 1-1.524-1.123l.717-2.82a3.547 3.547 0 0 1 1.902-2.325l5.05-2.424a.473.473 0 0 0-.285-.893l-5.622.973a3.941 3.941 0 0 1-3.203-.862l-1.776-1.489a1.022 1.022 0 0 1 .577-1.802l5.426-.425c.383-.03.717-.272.864-.627l2.094-5.054a1.022 1.022 0 0 1 1.888 0l2.094 5.054c.147.355.48.597.864.627l5.456.427a1.022 1.022 0 0 1 .584 1.797l-4.162 3.548c-.292.25-.42.643-.33 1.017l1.28 5.314a1.022 1.022 0 0 1-1.529 1.11l-4.667-2.858a1.021 1.021 0 0 0-1.068 0Z" clip-rule="evenodd" style="mix-blend-mode:soft-light"/><defs><linearGradient id="a" x1="1.223" x2="39.853" y1="26.858" y2="-16.672" gradientUnits="userSpaceOnUse"><stop stop-color="#FDEB32"/><stop offset=".439" stop-color="#FEBD04"/><stop offset="1" stop-color="#D75902"/></linearGradient><linearGradient id="b" x1="26.44" x2="9.868" y1="3.91" y2="15.338" gradientUnits="userSpaceOnUse"><stop stop-color="#DB5A00"/><stop offset="1" stop-color="#FF9145"/></linearGradient><linearGradient id="c" x1="28.726" x2="13.297" y1="3.338" y2="12.744" gradientUnits="userSpaceOnUse"><stop stop-color="#fff" stop-opacity="0"/><stop offset=".396" stop-color="#fff" stop-opacity=".85"/><stop offset=".521" stop-color="#fff"/><stop offset=".646" stop-color="#fff" stop-opacity=".85"/><stop offset="1" stop-color="#fff" stop-opacity="0"/></linearGradient></defs></svg>